<svg width="11" height="17" viewBox="0 0 11 17" fill="none" xmlns="http://www.w3.org/2000/svg">
<path d="M6.46672 11.9558V9.80845C6.46672 9.63502 6.41581 9.4687 6.32518 9.34607C6.23456 9.22344 6.11164 9.15455 5.98348 9.15455H5.017C4.88883 9.15455 4.76592 9.22344 4.67529 9.34607C4.58467 9.4687 4.53375 9.63502 4.53375 9.80845V11.9545C3.79929 12.2087 3.13649 12.7502 2.62819 13.5112C2.11989 14.2723 1.78865 15.2192 1.67587 16.2336C1.66485 16.3282 1.66908 16.4248 1.68829 16.517C1.7075 16.6091 1.74122 16.6945 1.78713 16.7673C1.83305 16.8401 1.89007 16.8986 1.95428 16.9388C2.01849 16.979 2.08837 16.9998 2.15911 17H8.8491C8.91984 16.9998 8.98971 16.979 9.05392 16.9388C9.11813 16.8986 9.17516 16.8401 9.22107 16.7673C9.26699 16.6945 9.30071 16.6091 9.31992 16.517C9.33912 16.4248 9.34336 16.3282 9.33234 16.2336C9.21882 15.2181 8.88636 14.2705 8.3766 13.5096C7.86685 12.7486 7.20247 12.2081 6.46672 11.9558ZM10.9502 6.90384L8.53402 0.364874C8.49425 0.255664 8.43274 0.163645 8.35642 0.0991813C8.28009 0.0347171 8.19198 0.000367351 8.10201 0H2.89847C2.80896 0.000246416 2.72127 0.0341242 2.64516 0.0978566C2.56905 0.161589 2.50751 0.252672 2.46742 0.360951L0.0512118 6.89992C0.0144018 6.99931 -0.00307177 7.10976 0.000442245 7.22084C0.00395626 7.33192 0.0283419 7.43994 0.0712947 7.53472C0.114248 7.62949 0.174349 7.70788 0.245921 7.76248C0.317492 7.81708 0.398169 7.84609 0.48033 7.84676H8.39968V9.80845C8.39968 9.98187 8.45059 10.1482 8.54122 10.2708C8.63184 10.3935 8.75476 10.4623 8.88292 10.4623C9.01109 10.4623 9.134 10.3935 9.22463 10.2708C9.31525 10.1482 9.36616 9.98187 9.36616 9.80845V7.84676H10.5201C10.602 7.84598 10.6823 7.81709 10.7537 7.76279C10.825 7.70849 10.885 7.63056 10.928 7.53631C10.971 7.44207 10.9956 7.33459 10.9995 7.22396C11.0033 7.11334 10.9864 7.00318 10.9502 6.90384Z" fill="#2D2F33"/>
</svg>
