<?xml version="1.0" standalone="no"?>
<!DOCTYPE svg PUBLIC "-//W3C//DTD SVG 20010904//EN"
 "http://www.w3.org/TR/2001/REC-SVG-20010904/DTD/svg10.dtd">
<svg version="1.0" xmlns="http://www.w3.org/2000/svg"
 width="1088.000000pt" height="1088.000000pt" viewBox="0 0 1088.000000 1088.000000"
 preserveAspectRatio="xMidYMid meet">
<metadata>
Created by potrace 1.14, written by Peter Selinger 2001-2017
</metadata>
<g transform="translate(0.000000,1088.000000) scale(0.100000,-0.100000)"
fill="#000000" stroke="none">
<path d="M3699 10866 c-66 -23 -127 -77 -166 -147 -18 -31 -80 -196 -245 -644
-22 -60 -47 -124 -54 -142 -8 -17 -14 -37 -14 -45 0 -8 -4 -18 -9 -23 -5 -6
-16 -35 -26 -65 -10 -30 -23 -68 -30 -85 -22 -52 -37 -94 -36 -100 0 -2 -10
-30 -24 -60 -13 -31 -24 -56 -24 -58 0 -1 -2 -9 -5 -17 -10 -27 -48 -133 -67
-187 -10 -29 -24 -67 -33 -85 -8 -18 -20 -51 -26 -73 -7 -22 -18 -53 -25 -70
-7 -16 -22 -55 -33 -85 -27 -73 -149 -404 -206 -560 -26 -69 -49 -132 -53
-140 -3 -8 -8 -24 -10 -34 -2 -11 -7 -24 -12 -30 -5 -6 -19 -42 -31 -81 -12
-38 -27 -76 -33 -82 -5 -7 -6 -13 -2 -13 4 0 2 -7 -5 -15 -7 -8 -9 -15 -5 -15
4 0 3 -6 -2 -12 -6 -7 -16 -31 -23 -53 -7 -22 -15 -44 -19 -50 -3 -5 -6 -14
-7 -20 -1 -5 -14 -41 -29 -80 -82 -217 -163 -440 -168 -460 -1 -5 -4 -12 -7
-15 -3 -3 -18 -41 -34 -85 -41 -115 -73 -203 -161 -440 -42 -115 -78 -214 -79
-220 -1 -5 -5 -16 -9 -22 -8 -13 -45 -113 -54 -148 -3 -11 -6 -60 -8 -110 -4
-109 26 -235 68 -290 46 -61 88 -99 133 -121 l54 -27 2440 -1 c1342 0 2440 3
2440 7 0 5 5 5 12 1 6 -4 59 -8 117 -8 l106 -1 1 -650 c0 -357 4 -670 8 -695
35 -210 200 -360 350 -319 17 5 36 9 41 10 40 5 135 103 168 172 50 106 50
118 52 817 1 360 3 658 4 661 0 4 132 6 291 5 160 0 290 3 290 7 0 5 6 5 13 0
6 -4 53 -6 102 -5 73 2 100 7 142 28 87 42 155 138 189 267 12 48 13 201 1
252 -4 17 -59 167 -197 540 -10 28 -28 77 -40 110 -12 33 -26 69 -31 80 -5 11
-25 65 -44 120 -19 55 -42 116 -50 135 -7 19 -39 105 -70 190 -31 85 -59 162
-62 170 -4 8 -7 17 -7 20 -1 3 -4 10 -7 15 -5 8 -29 75 -34 95 -1 3 -5 14 -10
25 -4 11 -21 56 -37 100 -16 44 -39 105 -50 135 -11 30 -24 64 -28 75 -5 11
-20 54 -35 95 -15 41 -47 129 -72 195 -24 66 -53 143 -63 170 -10 28 -31 86
-48 130 -40 106 -138 373 -169 460 -14 39 -30 76 -35 83 -6 6 -8 12 -5 12 3 0
-12 46 -34 102 -21 57 -39 107 -39 111 0 5 -7 23 -15 40 -8 18 -39 102 -70
187 -50 138 -67 183 -95 255 -22 53 -102 272 -105 285 -3 13 -67 187 -98 265
-6 17 -12 32 -13 35 -3 21 -38 90 -45 90 -5 0 -9 6 -9 13 0 21 -74 87 -126
112 l-49 24 -1710 0 c-1374 0 -1717 -2 -1746 -13z"/>
<path d="M5130 5019 c-36 -3 -82 -14 -102 -23 -68 -29 -134 -110 -180 -221
-22 -54 -26 -172 -27 -828 0 -391 -4 -713 -8 -717 -4 -4 -24 -13 -43 -20 -38
-14 -105 -43 -160 -68 -47 -22 -214 -113 -220 -121 -3 -3 -39 -28 -80 -56 -41
-27 -77 -52 -80 -55 -3 -3 -41 -34 -85 -70 -96 -77 -271 -251 -340 -338 -27
-34 -53 -62 -57 -62 -5 0 -8 -6 -8 -14 0 -8 -4 -16 -8 -18 -4 -1 -30 -34 -57
-73 -27 -38 -52 -72 -55 -75 -4 -3 -15 -21 -26 -40 -10 -19 -22 -37 -26 -40
-22 -17 -217 -379 -210 -388 2 -3 0 -8 -5 -11 -5 -3 -22 -37 -38 -76 -16 -38
-32 -74 -35 -80 -4 -5 -14 -30 -23 -55 -9 -25 -22 -58 -28 -75 -7 -16 -13 -34
-15 -40 -1 -5 -12 -36 -23 -67 -12 -32 -23 -66 -25 -75 -1 -10 -6 -25 -9 -33
-15 -38 -36 -108 -40 -137 -3 -17 -8 -37 -12 -43 -4 -6 -8 -21 -10 -33 -2 -12
-11 -53 -20 -92 -21 -85 -21 -87 -40 -200 -2 -11 -6 -31 -9 -45 -4 -14 -9 -49
-12 -79 -3 -30 -8 -64 -11 -75 -9 -35 -12 -260 -4 -271 4 -5 13 -30 20 -55 26
-93 94 -179 176 -223 l40 -22 2210 0 c2137 0 2211 1 2245 19 52 27 129 112
156 170 45 100 60 231 39 356 -3 19 -6 42 -7 50 -1 17 -33 207 -42 255 -4 17
-12 55 -18 85 -7 30 -13 60 -13 65 -1 6 -4 21 -8 35 -4 14 -12 41 -17 60 -32
119 -52 188 -59 205 -5 11 -21 58 -36 105 -27 83 -36 108 -69 182 -9 20 -16
39 -16 42 0 13 -149 325 -160 336 -3 3 -18 30 -34 60 -89 166 -280 429 -419
575 -27 27 -63 66 -81 85 -18 19 -57 55 -86 80 -29 25 -60 52 -69 61 -30 30
-176 137 -257 187 -98 61 -254 144 -254 135 0 -3 -9 2 -21 13 -12 10 -24 18
-28 17 -3 0 -21 5 -40 13 -18 8 -39 14 -45 14 -7 0 -20 6 -29 13 -16 11 -17
71 -20 752 -2 589 -6 747 -17 775 -42 111 -101 196 -161 233 -14 8 -45 21 -69
27 -50 13 -270 19 -270 7 0 -5 -5 -5 -11 -2 -16 11 -309 11 -309 1 0 -5 -6 -4
-12 1 -7 5 -42 6 -78 2z"/>
</g>
</svg>
